<svg width="58" height="47" viewBox="0 0 58 47" fill="none" xmlns="http://www.w3.org/2000/svg">
<path fill-rule="evenodd" clip-rule="evenodd" d="M23.2052 3.8439C22.9806 3.98875 22.7193 4.05931 22.4543 4.04074V4.04445C19.4106 4.04445 16.8932 6.24309 16.8711 7.5541C16.8711 8.20033 17.3753 8.50115 18.0562 8.62743C20.3786 9.02853 21.663 9.94958 23.4444 12.7833C24.7841 14.8687 26.4604 17.5061 27.4937 19.1318C28.0301 19.9758 28.3933 20.5471 28.4461 20.6271C28.6706 20.9725 28.7957 21.0096 28.9614 21.0096C29.127 21.0096 29.2595 20.9762 29.495 20.6271C29.5463 20.5435 29.9427 19.923 30.5228 19.0151C31.5666 17.3813 33.205 14.817 34.4967 12.7759C36.3259 9.93101 37.5662 9.02481 39.8849 8.62371C40.5731 8.49744 41.07 8.19661 41.07 7.55039C41.07 6.24309 38.5673 4.04074 35.5052 4.04074C35.2402 4.05931 34.9752 3.98875 34.7544 3.8439C34.5335 3.69906 34.3642 3.48365 34.2722 3.23111C33.7643 2.25435 33.0025 1.43729 32.0713 0.869057C31.1402 0.300828 30.0692 0 28.9798 0C27.8903 0 26.8193 0.300828 25.8882 0.869057C24.9534 1.441 24.1915 2.25435 23.6873 3.23111C23.599 3.48365 23.426 3.69906 23.2052 3.8439ZM21.2545 15.1899C18.7445 11.242 15.6308 9.96815 12.6938 9.96815H12.6901C8.78152 9.96815 7.36823 12.0405 7.36823 12.8836C7.36823 13.2253 7.54858 13.5298 8.14113 13.5298C10.9272 13.5298 12.6791 15.1973 14.0372 17.4294C15.3953 19.6652 22.1489 30.6064 22.2372 30.7327C22.2777 30.8144 22.3402 30.8886 22.4175 30.9369C22.4985 30.9889 22.5868 31.0149 22.6788 31.0149C22.7745 31.0149 22.8666 30.9889 22.9475 30.9406C23.0285 30.8924 23.0984 30.8218 23.1426 30.7401C23.2383 30.5841 26.7973 24.9352 26.8819 24.8164C26.9555 24.7087 26.996 24.5824 26.9997 24.4524C26.996 24.3261 26.9592 24.2036 26.8856 24.1033C26.8193 23.9808 22.5316 17.1917 21.2545 15.1899ZM20.3712 46.346C21.1183 46.7768 21.9648 46.9996 22.8261 46.9996C23.6873 47.0107 24.5375 46.7916 25.2883 46.3608C26.0391 45.9337 26.6611 45.3098 27.0954 44.5558C28.0817 42.97 42.5569 19.6615 43.9113 17.4331C45.2657 15.2048 47.0139 13.5335 49.8037 13.5335C50.3962 13.5335 50.5802 13.229 50.5802 12.8873C50.5802 12.0442 49.1485 9.97186 45.2399 9.97186C42.2919 9.97186 39.1893 11.2457 36.6792 15.1936C35.3911 17.1917 25.4061 33.0761 23.2935 36.4781C23.2015 36.6378 23.0211 36.8903 22.7672 36.8903C22.5132 36.8903 22.3844 36.7343 22.2225 36.4781C17.9384 29.7113 12.197 20.5825 12.197 20.5825C9.84885 16.8018 7.13269 15.8807 4.79929 15.8807C1.70404 15.8807 0 17.5037 0 18.577C0 18.9595 0.16562 19.3718 0.901707 19.3718C2.76401 19.3718 3.46329 20.3485 5.51697 23.6911C7.0738 26.1534 18.5678 44.5447 18.5678 44.5447C19.0021 45.2949 19.6241 45.9151 20.3712 46.346ZM52.4793 23.6911C54.5367 20.3485 55.2323 19.3718 57.0946 19.3718H57.0983C57.827 19.3718 58 18.9595 58 18.577C58 17.5037 56.296 15.8807 53.2007 15.8807C50.8747 15.8807 48.1769 16.8018 45.803 20.5825C45.803 20.5825 31.2543 43.6682 31.1586 43.8316C31.015 43.9876 30.923 44.1807 30.8899 44.3887C30.923 44.5967 31.015 44.7861 31.1586 44.9347C31.6223 45.5772 32.2333 46.0971 32.9362 46.4574C33.6392 46.8139 34.4158 46.9996 35.2034 46.9996C36.0609 47.0033 36.9074 46.7768 37.6545 46.346C38.4017 45.9151 39.0237 45.2949 39.458 44.5447C39.458 44.5447 50.9556 26.1534 52.4793 23.6911Z" fill="#D5C9BE"/>
</svg>
