<svg width="20" height="24" viewBox="0 0 20 24" fill="none" xmlns="http://www.w3.org/2000/svg">
<path d="M6.51411 11.9997C5.42917 11.9997 4.36859 12.3214 3.46649 12.9241C2.5644 13.5269 1.8613 14.3836 1.44611 15.386C1.03092 16.3883 0.922287 17.4913 1.13395 18.5554C1.34561 19.6195 1.86806 20.5969 2.63523 21.3641C3.4024 22.1313 4.37983 22.6537 5.44393 22.8654C6.50802 23.077 7.61099 22.9684 8.61334 22.5532C9.6157 22.138 10.4724 21.4349 11.0752 20.5328C11.6779 19.6307 11.9997 18.5702 11.9997 17.4852V1.02854C11.9997 2.84712 12.7221 4.59121 14.008 5.87714C15.294 7.16307 17.038 7.88549 18.8566 7.88549" stroke="#D5C9BE" stroke-width="2" stroke-linecap="round" stroke-linejoin="round"/>
</svg>
